<?xml version="1.0" encoding="UTF-8" standalone="no"?>
<svg
   xmlns:dc="http://purl.org/dc/elements/1.1/"
   xmlns:cc="http://creativecommons.org/ns#"
   xmlns:rdf="http://www.w3.org/1999/02/22-rdf-syntax-ns#"
   xmlns:svg="http://www.w3.org/2000/svg"
   xmlns="http://www.w3.org/2000/svg"
   height="319.98999"
   width="319.98999"
   id="svg4"
   fill="#3C4858"
   version="1.1"
   viewBox="0 0 319.98999 319.98999">
  <metadata
     id="metadata10">
    <rdf:RDF>
      <cc:Work
         rdf:about="">
        <dc:format>image/svg+xml</dc:format>
        <dc:type
           rdf:resource="http://purl.org/dc/dcmitype/StillImage" />
        <dc:title></dc:title>
      </cc:Work>
    </rdf:RDF>
  </metadata>
  <defs
     id="defs8" />
  <path
     id="path2"
     d="M 193.94,160 296.5,57.44 317.65,36.29 c 3.12,-3.12 3.12,-8.19 0,-11.31 L 295.02,2.35 c -3.12,-3.12 -8.19,-3.12 -11.31,0 L 160,126.06 36.29,2.34 c -3.12,-3.12 -8.19,-3.12 -11.31,0 L 2.34,24.97 c -3.12,3.12 -3.12,8.19 0,11.31 L 126.06,160 2.34,283.71 c -3.12,3.12 -3.12,8.19 0,11.31 l 22.63,22.63 c 3.12,3.12 8.19,3.12 11.31,0 L 160,193.94 262.56,296.5 l 21.15,21.15 c 3.12,3.12 8.19,3.12 11.31,0 l 22.63,-22.63 c 3.12,-3.12 3.12,-8.19 0,-11.31 z" />
</svg>
