<?xml version="1.0" encoding="UTF-8" standalone="no"?>
<svg
   xmlns:dc="http://purl.org/dc/elements/1.1/"
   xmlns:cc="http://creativecommons.org/ns#"
   xmlns:rdf="http://www.w3.org/1999/02/22-rdf-syntax-ns#"
   xmlns:svg="http://www.w3.org/2000/svg"
   xmlns="http://www.w3.org/2000/svg"
   height="356"
   width="448"
   id="svg4"
   fill="#3C4858"
   version="1.1"
   viewBox="0 0 448 356">
  <metadata
     id="metadata10">
    <rdf:RDF>
      <cc:Work
         rdf:about="">
        <dc:format>image/svg+xml</dc:format>
        <dc:type
           rdf:resource="http://purl.org/dc/dcmitype/StillImage" />
        <dc:title></dc:title>
      </cc:Work>
    </rdf:RDF>
  </metadata>
  <defs
     id="defs8" />
  <path
     id="path2"
     d="M 442,36 H 6 A 6,6 0 0 1 0,30 V 6 A 6,6 0 0 1 6,0 h 436 a 6,6 0 0 1 6,6 v 24 a 6,6 0 0 1 -6,6 z m 0,160 H 6 a 6,6 0 0 1 -6,-6 v -24 a 6,6 0 0 1 6,-6 h 436 a 6,6 0 0 1 6,6 v 24 a 6,6 0 0 1 -6,6 z m 0,160 H 6 a 6,6 0 0 1 -6,-6 v -24 a 6,6 0 0 1 6,-6 h 436 a 6,6 0 0 1 6,6 v 24 a 6,6 0 0 1 -6,6 z" />
</svg>
